# xmcd CD database file
#
# Track frame offsets:
#	150
#	14845
#	24375
#	35265
#	46222
#	55997
#	67390
#	79670
#	91120
#	101622
#	110637
#	122295
#	134575
#	144500
#	158925
#	174247
#	191360
#	201000
#	211282
#	224557
#
# Disc length: 3151 seconds
#
# Revision: 0
# Processed by: cddbd v1.5.1PL0 Copyright (c) Steve Scherf et al.
# Submitted via: CDex 1.51
#
DISCID=1e0c4d14
DTITLE=Riley, Jeannie C. - Country Girl - The Best Of Jeannie C. Riley
DYEAR=1995
DGENRE=Country
TTITLE0=The Harper Valley P.T.A.
TTITLE1=Holdin' On
TTITLE2=No Brass Band
TTITLE3=Pages Off My Mind
TTITLE4=The Girl Most Likely
TTITLE5=Am I That Easy To Forget
TTITLE6=I'm Only A Woman
TTITLE7=Duty Not Desire
TTITLE8=A Change Of Heart
TTITLE9=That's A No No
TTITLE10=Before The Next Teardrop Falls
TTITLE11=There Never Was A Time
TTITLE12=Wish You Were Here
TTITLE13=The Children
TTITLE14=Run Jeannie Run
TTITLE15=Oh, Singer
TTITLE16=Shed Me No Tears
TTITLE17=Whatever Happened To Charlie Brown
TTITLE18=Games People Play
TTITLE19=Country Girl
EXTD=YEAR: 1995
EXTT0=
EXTT1=
EXTT2=
EXTT3=
EXTT4=
EXTT5=
EXTT6=
EXTT7=
EXTT8=
EXTT9=
EXTT10=
EXTT11=
EXTT12=
EXTT13=
EXTT14=
EXTT15=
EXTT16=
EXTT17=
EXTT18=
EXTT19=
PLAYORDER=
